<svg xmlns="http://www.w3.org/2000/svg" width="29.363" height="33.074" viewBox="0 0 29.363 33.074">
  <path id="delete" d="M205.486-757.7a3.268,3.268,0,0,1-2.4-.99,3.267,3.267,0,0,1-.99-2.4v-25.975H200v-2.1h8.389v-1.613h12.584v1.613h8.389v2.1h-2.1v25.975a3.282,3.282,0,0,1-.97,2.418,3.282,3.282,0,0,1-2.418.97Zm19.683-29.363H204.195v25.975a1.258,1.258,0,0,0,.363.928,1.258,1.258,0,0,0,.928.363h18.392a1.234,1.234,0,0,0,.888-.4,1.234,1.234,0,0,0,.4-.888Zm-15.085,23.071h2.1v-18.876h-2.1Zm7.1,0h2.1v-18.876h-2.1Zm-12.987-23.071v0Z" transform="translate(-200 790.77)" fill="#fff"/>
</svg>
