<svg xmlns="http://www.w3.org/2000/svg" width="800" height="800" viewBox="0 0 800 800">
  <path id="noAccess" d="M480-80q-83,0-156-31.5T197-197q-54-54-85.5-127T80-480q0-83,31.5-156T197-763q54-54,127-85.5T480-880q83,0,156,31.5T763-763q54,54,85.5,127T880-480q0,83-31.5,156T763-197q-54,54-127,85.5T480-80Zm0-80a312.543,312.543,0,0,0,104-17.5A318.007,318.007,0,0,0,676-228L228-676a318.007,318.007,0,0,0-50.5,92A312.543,312.543,0,0,0,160-480q0,134,93,227T480-160ZM732-284a318.007,318.007,0,0,0,50.5-92A312.543,312.543,0,0,0,800-480q0-134-93-227T480-800a312.543,312.543,0,0,0-104,17.5A318.007,318.007,0,0,0,284-732Z" transform="translate(-80 880)" fill="#2f3325"/>
</svg>
