<svg xmlns="http://www.w3.org/2000/svg" width="793" height="760" viewBox="0 0 793 760">
  <path id="overviewWhite" d="M120-120v-80h80V-840H600v40H760v240H680V-720H600v240H520V-760H280v560H480v80ZM680-80l-12-60a201.531,201.531,0,0,1-22.5-11A159.565,159.565,0,0,1,625-165l-58,20-40-69,45-40a197.793,197.793,0,0,1-2-25.5,197.793,197.793,0,0,1,2-25.5l-45-40,40-69,58,20a208.486,208.486,0,0,1,20.5-14.5A158.4,158.4,0,0,1,668-420l12-60h80l12,60a201.534,201.534,0,0,1,22.5,11A159.564,159.564,0,0,1,815-395l58-20,40,69-45,40a197.793,197.793,0,0,1,2,25.5,197.793,197.793,0,0,1-2,25.5l45,40-40,69-58-19a159.565,159.565,0,0,1-20.5,14A201.531,201.531,0,0,1,772-140L760-80Zm40-120q33,0,56.5-23.5T800-280q0-33-23.5-56.5T720-360q-33,0-56.5,23.5T640-280q0,33,23.5,56.5T720-200ZM440-440q-17,0-28.5-11.5T400-480q0-17,11.5-28.5T440-520q17,0,28.5,11.5T480-480q0,17-11.5,28.5T440-440ZM280-200v0Z" transform="translate(-120 840)" fill="#f1f2ee"/>
</svg>
