<svg xmlns="http://www.w3.org/2000/svg" width="800" height="640" viewBox="0 0 800 640">
  <path id="reservationGreen" d="M480-280q17,0,28.5-11.5T520-320q0-17-11.5-28.5T480-360q-17,0-28.5,11.5T440-320q0,17,11.5,28.5T480-280Zm0-160q17,0,28.5-11.5T520-480q0-17-11.5-28.5T480-520q-17,0-28.5,11.5T440-480q0,17,11.5,28.5T480-440Zm0-160q17,0,28.5-11.5T520-640q0-17-11.5-28.5T480-680q-17,0-28.5,11.5T440-640q0,17,11.5,28.5T480-600ZM800-160H160q-33,0-56.5-23.5T80-240V-400q33,0,56.5-23.5T160-480q0-33-23.5-56.5T80-560V-720q0-33,23.5-56.5T160-800H800q33,0,56.5,23.5T880-720v160q-33,0-56.5,23.5T800-480q0,33,23.5,56.5T880-400v160q0,33-23.5,56.5T800-160Zm0-80V-342a163.975,163.975,0,0,1-58.5-58.5A153.853,153.853,0,0,1,720-480a153.853,153.853,0,0,1,21.5-79.5A163.975,163.975,0,0,1,800-618V-720H160v102a163.975,163.975,0,0,1,58.5,58.5A153.853,153.853,0,0,1,240-480a153.853,153.853,0,0,1-21.5,79.5A163.975,163.975,0,0,1,160-342v102ZM480-480Z" transform="translate(-80 800)" fill="#2f3325"/>
</svg>
