<svg xmlns="http://www.w3.org/2000/svg" width="36.782" height="36.782" viewBox="0 0 36.782 36.782">
  <path id="smoking" d="M88.854-843.218,77.069-855h-20v-5.357H71.713L56-876.072l2.5-2.5,32.854,32.854ZM87.157-855,85.64-856.52v-3.839h2.678V-855Zm2.946,0v-5.357h2.678V-855Zm-6.249-3.3L81.8-860.359h2.053Zm1.786-3.839v-2.321a3.372,3.372,0,0,0-1.027-2.656,3.564,3.564,0,0,0-2.455-.915H79.39a5.771,5.771,0,0,1-4.241-1.741,5.771,5.771,0,0,1-1.741-4.241,5.771,5.771,0,0,1,1.741-4.241A5.771,5.771,0,0,1,79.39-880v2.678a3.249,3.249,0,0,0-2.321.937,3.132,3.132,0,0,0-.982,2.366,3.132,3.132,0,0,0,.982,2.366,3.249,3.249,0,0,0,2.321.937h2.768a6.348,6.348,0,0,1,4.33,1.607,5.126,5.126,0,0,1,1.83,4.017v2.946Zm4.464,0v-4.017a7.1,7.1,0,0,0-2.053-5.089,6.765,6.765,0,0,0-5.089-2.143v-2.678a3.174,3.174,0,0,0,2.321-.982,3.174,3.174,0,0,0,.982-2.321h2.678a5.461,5.461,0,0,1-.491,2.344,7.9,7.9,0,0,1-1.295,1.942,9.583,9.583,0,0,1,4.062,3.571,9.641,9.641,0,0,1,1.562,5.357v4.017Z" transform="translate(-56 880)" fill="#2f3325"/>
</svg>
