<svg xmlns="http://www.w3.org/2000/svg" width="35.493" height="39.436" viewBox="0 0 35.493 39.436">
  <path id="balcony" d="M129.859-860.282v-3.944H133.8v3.944Zm11.831,0v-3.944h3.944v3.944ZM120-840.564v-15.775h1.972v-7.887a15.453,15.453,0,0,1,1.232-6.137,15.832,15.832,0,0,1,3.377-5.028,15.831,15.831,0,0,1,5.028-3.377A15.452,15.452,0,0,1,137.746-880a15.452,15.452,0,0,1,6.137,1.232,15.831,15.831,0,0,1,5.028,3.377,15.832,15.832,0,0,1,3.377,5.028,15.453,15.453,0,0,1,1.232,6.137v7.887h1.972v15.775Zm3.944-3.944h3.944v-7.887h-3.944Zm7.887,0h3.944v-7.887h-3.944Zm-5.915-11.831h9.859v-19.57a11.436,11.436,0,0,0-7.049,3.968,11.479,11.479,0,0,0-2.81,7.715Zm13.8,0h9.859v-7.887a11.479,11.479,0,0,0-2.81-7.715,11.436,11.436,0,0,0-7.049-3.968Zm0,11.831h3.944v-7.887h-3.944Zm7.887,0h3.944v-7.887h-3.944Z" transform="translate(-120 880)" fill="#2f3325"/>
</svg>
