<svg xmlns="http://www.w3.org/2000/svg" width="93.103" height="82.758" viewBox="0 0 93.103 82.758">
  <path id="camera" d="M166.551-734.152a18.634,18.634,0,0,0,13.7-5.6,18.633,18.633,0,0,0,5.6-13.7,18.633,18.633,0,0,0-5.6-13.7,18.634,18.634,0,0,0-13.7-5.6,18.633,18.633,0,0,0-13.7,5.6,18.633,18.633,0,0,0-5.6,13.7,18.633,18.633,0,0,0,5.6,13.7A18.633,18.633,0,0,0,166.551-734.152Zm0-5.172a13.674,13.674,0,0,1-10.076-4.049,13.674,13.674,0,0,1-4.049-10.076,13.674,13.674,0,0,1,4.049-10.076,13.674,13.674,0,0,1,10.076-4.049,13.674,13.674,0,0,1,10.076,4.049,13.674,13.674,0,0,1,4.049,10.076,13.674,13.674,0,0,1-4.049,10.076A13.674,13.674,0,0,1,166.551-739.324Zm-38.2,22.082a8.094,8.094,0,0,1-5.964-2.392A8.094,8.094,0,0,1,120-725.6v-55.7a8.094,8.094,0,0,1,2.392-5.964,8.094,8.094,0,0,1,5.964-2.392h15.3L153.222-800H179.88l9.569,10.345h15.3a8.094,8.094,0,0,1,5.964,2.392A8.094,8.094,0,0,1,213.1-781.3v55.7a8.094,8.094,0,0,1-2.392,5.964,8.094,8.094,0,0,1-5.964,2.392Zm0-5.172h76.391a3.1,3.1,0,0,0,2.289-.895,3.1,3.1,0,0,0,.895-2.289v-55.7a3.1,3.1,0,0,0-.895-2.289,3.1,3.1,0,0,0-2.289-.895H187.181l-9.539-10.345H155.46l-9.539,10.345H128.356a3.1,3.1,0,0,0-2.289.895,3.1,3.1,0,0,0-.895,2.289v55.7a3.1,3.1,0,0,0,.895,2.289A3.1,3.1,0,0,0,128.356-722.415ZM166.551-753.449Z" transform="translate(-120 800)" fill="#2f3325"/>
</svg>
