<svg xmlns="http://www.w3.org/2000/svg" width="33.075" height="33.075" viewBox="0 0 33.075 33.075">
  <path id="edit" d="M162.067-768.992h2.27l22.115-22.115-2.27-2.27-22.115,22.115ZM160-766.925v-5.208l27.247-27.275a2.394,2.394,0,0,1,.7-.438,2.125,2.125,0,0,1,.8-.154,2.519,2.519,0,0,1,.807.131,1.8,1.8,0,0,1,.72.473l2.206,2.219a1.74,1.74,0,0,1,.467.724,2.594,2.594,0,0,1,.125.788,2.305,2.305,0,0,1-.142.8,1.99,1.99,0,0,1-.451.7l-27.275,27.235Zm31.047-28.75-2.3-2.3Zm-5.75,3.453-1.115-1.155,2.27,2.27Z" transform="translate(-160 800)" fill="#fff"/>
</svg>
