<svg xmlns="http://www.w3.org/2000/svg" width="38.93" height="50.053" viewBox="0 0 38.93 50.053">
  <path id="locked" d="M204.492-789.947a4.332,4.332,0,0,1-3.18-1.312A4.332,4.332,0,0,1,200-794.44v-24.384a4.332,4.332,0,0,1,1.313-3.18,4.332,4.332,0,0,1,3.18-1.312h3.85v-5.561a10.729,10.729,0,0,1,3.238-7.885A10.729,10.729,0,0,1,219.465-840a10.729,10.729,0,0,1,7.885,3.238,10.729,10.729,0,0,1,3.238,7.885v5.561h3.85a4.332,4.332,0,0,1,3.18,1.313,4.332,4.332,0,0,1,1.312,3.18v24.384a4.332,4.332,0,0,1-1.312,3.18,4.332,4.332,0,0,1-3.18,1.313Zm0-2.781h29.945a1.667,1.667,0,0,0,1.23-.481,1.668,1.668,0,0,0,.481-1.23v-24.384a1.668,1.668,0,0,0-.481-1.23,1.668,1.668,0,0,0-1.23-.481H204.492a1.668,1.668,0,0,0-1.23.481,1.668,1.668,0,0,0-.481,1.23v24.384a1.668,1.668,0,0,0,.481,1.23A1.667,1.667,0,0,0,204.492-792.728Zm14.973-9.732a4.029,4.029,0,0,0,2.965-1.206,4.029,4.029,0,0,0,1.206-2.965,4.029,4.029,0,0,0-1.206-2.965,4.029,4.029,0,0,0-2.965-1.206A4.029,4.029,0,0,0,216.5-809.6a4.029,4.029,0,0,0-1.206,2.965,4.029,4.029,0,0,0,1.206,2.965A4.029,4.029,0,0,0,219.465-802.46Zm-8.342-20.855h16.684v-5.561a8.045,8.045,0,0,0-2.433-5.909,8.045,8.045,0,0,0-5.909-2.433,8.045,8.045,0,0,0-5.909,2.433,8.045,8.045,0,0,0-2.433,5.909Zm-8.342,30.588v0Z" transform="translate(-200 840)" fill="#2f3325"/>
</svg>
