<svg xmlns="http://www.w3.org/2000/svg" width="35.493" height="31.943" viewBox="0 0 35.493 31.943">
  <path id="tv" d="M90.648-808.057v-3.549h-7.1a3.418,3.418,0,0,1-2.507-1.042A3.418,3.418,0,0,1,80-815.155v-21.3a3.418,3.418,0,0,1,1.043-2.507A3.418,3.418,0,0,1,83.549-840h28.394a3.418,3.418,0,0,1,2.507,1.042,3.418,3.418,0,0,1,1.043,2.507v21.3a3.418,3.418,0,0,1-1.043,2.507,3.418,3.418,0,0,1-2.507,1.042h-7.1v3.549Zm-7.1-7.1h28.394v-21.3H83.549Zm0,0v0Z" transform="translate(-80 840)" fill="#2f3325"/>
</svg>
