<svg xmlns="http://www.w3.org/2000/svg" width="48.302" height="34.214" viewBox="0 0 48.302 34.214">
  <path id="wifi" d="M24.151-765.786a4.858,4.858,0,0,1-3.572-1.459,4.859,4.859,0,0,1-1.459-3.572,4.858,4.858,0,0,1,1.459-3.572,4.859,4.859,0,0,1,3.572-1.459,4.859,4.859,0,0,1,3.572,1.459,4.858,4.858,0,0,1,1.459,3.572,4.858,4.858,0,0,1-1.459,3.572A4.858,4.858,0,0,1,24.151-765.786ZM12.78-777.157l-4.226-4.327a22.305,22.305,0,0,1,6.969-4.7,21.44,21.44,0,0,1,8.629-1.736,21.174,21.174,0,0,1,8.629,1.761,22.23,22.23,0,0,1,6.969,4.78l-4.226,4.226a16.326,16.326,0,0,0-5.132-3.472,15.592,15.592,0,0,0-6.239-1.258,15.592,15.592,0,0,0-6.239,1.258A16.326,16.326,0,0,0,12.78-777.157Zm-8.554-8.553L0-789.937a33.56,33.56,0,0,1,10.818-7.4A33.33,33.33,0,0,1,24.151-800a33.33,33.33,0,0,1,13.333,2.667,33.56,33.56,0,0,1,10.818,7.4l-4.226,4.226a28.4,28.4,0,0,0-8.981-6.063,27.484,27.484,0,0,0-10.943-2.189,27.484,27.484,0,0,0-10.943,2.189A28.4,28.4,0,0,0,4.226-785.711Z" transform="translate(0 800)" fill="#2f3325"/>
</svg>
